<!DOCTYPE svg PUBLIC "-//W3C//DTD SVG 20010904//EN"
 "http://www.w3.org/TR/2001/REC-SVG-20010904/DTD/svg10.dtd">
<svg version="1.0" xmlns="http://www.w3.org/2000/svg"
 width="512.000000pt" height="512.000000pt" viewBox="0 0 512.000000 512.000000"
 preserveAspectRatio="xMidYMid meet">

<g transform="translate(0.000000,512.000000) scale(0.100000,-0.100000)"
fill="#000000" stroke="none">
<path d="M2405 5109 c-129 -18 -293 -83 -422 -165 -66 -42 -192 -162 -250
-237 -58 -75 -125 -203 -157 -298 -30 -89 -66 -299 -66 -382 0 -146 106 -311
237 -369 l46 -20 -6 -52 c-3 -28 -17 -148 -31 -266 -14 -118 -30 -284 -36
-368 -13 -190 -13 -605 0 -772 5 -69 12 -161 16 -205 l6 -80 -83 -23 c-302
-82 -551 -312 -651 -602 -119 -346 -31 -730 226 -986 210 -209 506 -312 791
-275 171 23 370 108 484 208 l51 45 38 -34 c93 -84 242 -163 377 -200 113 -30
345 -30 457 0 112 30 214 76 304 134 543 357 576 1135 65 1540 -87 69 -246
149 -350 175 l-73 18 6 71 c44 522 31 1008 -39 1517 -22 158 -23 151 39 181
118 58 213 202 223 338 10 142 -46 396 -118 541 -72 142 -215 308 -341 395
-208 143 -488 207 -743 171z m388 -223 c152 -45 263 -113 373 -228 142 -148
222 -344 241 -593 8 -105 -33 -182 -120 -226 -49 -25 -111 -23 -322 12 -121
20 -175 23 -405 23 -230 0 -284 -3 -405 -23 -210 -35 -273 -37 -322 -13 -50
26 -97 79 -113 128 -23 69 14 309 69 441 88 213 272 388 491 465 155 55 354
60 513 14z m132 -1230 c55 -9 123 -21 151 -26 51 -11 52 -11 57 -53 57 -459
77 -717 77 -1017 0 -317 -24 -620 -80 -1023 -17 -121 -18 -143 -6 -172 17 -39
42 -55 88 -55 36 0 72 20 87 49 5 9 20 88 32 174 26 180 17 172 131 131 186
-66 326 -188 418 -365 59 -113 82 -210 82 -344 0 -134 -23 -231 -82 -343 -75
-144 -190 -256 -335 -328 -127 -62 -197 -79 -335 -78 -206 0 -364 64 -521 212
-81 75 -92 82 -129 82 -37 0 -48 -7 -130 -84 -156 -146 -314 -210 -520 -210
-138 -1 -208 16 -335 78 -261 129 -417 380 -417 671 0 325 194 600 500 709
114 41 105 49 131 -131 12 -86 27 -165 32 -174 15 -29 51 -49 87 -49 46 0 71
16 88 55 12 29 11 51 -6 172 -102 731 -106 1235 -14 1950 l17 132 46 10 c47
10 234 37 306 45 90 9 484 -3 580 -18z"/>
</g>
</svg>